<svg xmlns="http://www.w3.org/2000/svg" width="8.575" height="12.25" viewBox="0 0 8.575 12.25">
  <path id="pin_x5F_rounded_x5F_circle_2_" d="M4.287,0A4.261,4.261,0,0,0,0,4.287C0,6.676,1.9,12.25,4.287,12.25c1.706,0,3.161-2.841,3.936-5.64a9.589,9.589,0,0,0,.352-2.323A4.261,4.261,0,0,0,4.287,0Zm0,11.025c-1.1,0-3.062-4.287-3.062-6.737A3.033,3.033,0,0,1,4.287,1.225,3.033,3.033,0,0,1,7.35,4.287a10.771,10.771,0,0,1-.769,3.453C6.017,9.323,4.982,11.025,4.287,11.025ZM5.512,4.41A1.225,1.225,0,1,1,4.287,3.185,1.229,1.229,0,0,1,5.512,4.41Z" fill="#fff"/>
</svg>
