<svg xmlns="http://www.w3.org/2000/svg" width="12.25" height="11.39" viewBox="0 0 12.25 11.39">
  <path id="shopping_x5F_cart_x5F_round_1_" d="M10.413,4.044,8.269.308A.678.678,0,0,0,7.411.063h0A.678.678,0,0,0,7.166.92L8.943,4.044h-5.7L5.023.92A.6.6,0,0,0,4.839.063h0a.678.678,0,0,0-.858.245L1.838,4.044H.613A.579.579,0,0,0,0,4.656H0a.579.579,0,0,0,.613.613H.8l.857,5.084a1.246,1.246,0,0,0,1.225,1.041H9.371A1.246,1.246,0,0,0,10.6,10.353l.858-5.084h.184a.579.579,0,0,0,.613-.613h0a.579.579,0,0,0-.613-.612H10.413ZM8.881,10.169H3.369a.659.659,0,0,1-.612-.49l-.674-4.41h8.269l-.857,4.41A.659.659,0,0,1,8.881,10.169Z" transform="translate(0 -0.003)" fill="#fff"/>
</svg>
